<?xml version="1.0" encoding="UTF-8"?>
<svg version="1.1" xmlns="http://www.w3.org/2000/svg" width="626" height="262">
<path d="M0 0 C206.58 0 413.16 0 626 0 C626 86.46 626 172.92 626 262 C419.42 262 212.84 262 0 262 C0 175.54 0 89.08 0 0 Z " fill="#3F3F3E" transform="translate(0,0)"/>
<path d="M0 0 C206.58 0 413.16 0 626 0 C626 86.46 626 172.92 626 262 C419.42 262 212.84 262 0 262 C0 175.54 0 89.08 0 0 Z M37.1875 35.8125 C36.64480469 36.43769531 36.10210937 37.06289063 35.54296875 37.70703125 C31.9411262 43.05964284 30.62456218 47.5554757 30.63250732 53.97846985 C30.62923848 54.64457517 30.62596964 55.3106805 30.62260175 55.99697083 C30.61536925 58.209563 30.62943055 60.42148236 30.64355469 62.6340332 C30.64276316 64.22786064 30.6406639 65.82168788 30.63735962 67.41551208 C30.63224011 71.72923665 30.64572974 76.04272134 30.66288662 80.3564074 C30.67794992 84.8718101 30.67674915 89.38721005 30.67755127 93.90263367 C30.68123931 101.47915735 30.69618716 109.05559018 30.71875 116.63208008 C30.74767623 126.36536194 30.75797884 136.09857088 30.7624321 145.83189106 C30.76640726 154.19641189 30.77890549 162.5609168 30.79277897 170.92542624 C30.79688098 173.61720287 30.79980494 176.30897893 30.80257416 179.00075722 C30.80745851 183.22212844 30.81764721 187.44345518 30.83201218 191.66480446 C30.83654316 193.21685891 30.83937572 194.76891936 30.84041977 196.32098007 C30.84215962 198.43284784 30.85002674 200.54460351 30.85955811 202.65644836 C30.86253277 203.84015676 30.86550743 205.02386515 30.86857224 206.24344349 C30.81205348 208.96086515 30.81205348 208.96086515 32 211 C32.66 211 33.32 211 34 211 C34.33 212.32 34.66 213.64 35 215 C35.66 215 36.32 215 37 215 C37 215.99 37 216.98 37 218 C37.66 218 38.32 218 39 218 C39.185625 218.94875 39.37125 219.8975 39.5625 220.875 C40.71306986 224.34583597 40.71306986 224.34583597 44.375 225.25 C45.57125 225.4975 46.7675 225.745 48 226 C48.86390842 226.51001996 48.86390842 226.51001996 49.74526954 227.03034335 C53.01213823 228.43527445 56.20508961 228.28061365 59.70068741 228.26450634 C60.48462303 228.268802 61.26855865 228.27309766 62.0762499 228.27752349 C64.71904459 228.28955251 67.36163704 228.28731027 70.00445557 228.28520203 C71.91199154 228.29091797 73.81952507 228.29750556 75.72705531 228.30489284 C80.9815092 228.3226872 86.23591409 228.32800396 91.49039435 228.33133328 C97.15244303 228.33707132 102.81445821 228.35425519 108.47648621 228.37002563 C119.57454802 228.39910594 130.67260344 228.41752309 141.77069244 228.43236574 C154.68943167 228.45002528 167.60814206 228.47805125 180.52686128 228.50649796 C204.27388184 228.55840995 228.02090837 228.59978969 251.76795685 228.63626824 C273.44574573 228.66961873 295.12350746 228.7103752 316.80126953 228.75805664 C318.19258754 228.76111423 319.58390556 228.76417176 320.97522357 228.76722922 C321.66306355 228.76874117 322.35090353 228.77025311 323.05958714 228.77181088 C326.52208685 228.77941998 329.98458658 228.78701828 333.44708633 228.7946043 C334.13018324 228.79610202 334.81328015 228.79759973 335.51707697 228.79914283 C357.5139113 228.84727459 379.51075992 228.88772768 401.50761063 228.92758697 C410.5153134 228.94406563 419.5230108 228.96254887 428.53070831 228.98166466 C439.50935249 229.0048333 450.48799598 229.02416398 461.46665511 229.03869756 C467.06956988 229.04618721 472.67246959 229.05527738 478.27537346 229.06874657 C483.40377192 229.0810187 488.532155 229.08859457 493.66056654 229.09240565 C495.51656919 229.09460055 497.37257077 229.09850521 499.22856572 229.10428592 C501.75104659 229.11188072 504.27345745 229.11322362 506.79594803 229.11301708 C507.51660047 229.11667675 508.23725291 229.12033641 508.9797433 229.12410697 C513.7462991 229.11481845 518.28672787 228.62375847 523 228 C525.80200195 228.13208008 525.80200195 228.13208008 528.42578125 228.45703125 C535.62262494 229.15918992 542.72176714 228.99045856 549.93725586 228.75805664 C552.19433707 228.68728562 554.45142459 228.63311379 556.70898438 228.58007812 C570.60035314 228.50257862 570.60035314 228.50257862 583 223 C583.66 222.01 584.32 221.02 585 220 C587.125 219.3125 587.125 219.3125 589 219 C589.93423645 215.98968256 590.04449911 215.13349732 589 212 C588.90775143 209.76796936 588.87806961 207.53320612 588.87974548 205.29927063 C588.87889106 204.61475411 588.87803663 203.93023759 588.87715632 203.22497815 C588.87550641 200.92640756 588.8810149 198.6279096 588.88647461 196.3293457 C588.88675661 194.68360394 588.88659849 193.03786205 588.8860321 191.39212036 C588.88574464 186.91928919 588.89163314 182.44648471 588.89860606 177.97365975 C588.90484808 173.30114136 588.90544407 168.62862238 588.90663147 163.95610046 C588.90974227 155.10574423 588.9179523 146.25540031 588.92798096 137.4050495 C588.93914986 127.33020353 588.94465451 117.25535697 588.94967639 107.18050635 C588.96013511 86.45366402 588.97772972 65.72683278 589 45 C589.66 45 590.32 45 591 45 C590.72357466 40.43898192 588.69966234 37.79753309 585.76171875 34.50390625 C583.05627146 32.19437808 580.42635643 31.80620151 577 31 C576.67 30.01 576.34 29.02 576 28 C525.87037369 27.93153274 475.74074411 27.86784946 425.61108398 27.83062744 C424.49834314 27.8297991 424.49834314 27.8297991 423.36312269 27.82895402 C407.2415711 27.81698264 391.12001902 27.80590188 374.99846619 27.79573868 C367.09256459 27.7907493 359.18666312 27.78556309 351.28076172 27.78027344 C350.49402569 27.7797504 349.70728967 27.77922737 348.89671315 27.77868848 C323.39215886 27.76164033 297.88763999 27.73159303 272.38310716 27.69481112 C246.17587214 27.65708439 219.96865673 27.63245907 193.76139501 27.62434004 C190.06057514 27.62318741 186.35975534 27.62188486 182.65893555 27.62049103 C181.93055463 27.62022134 181.20217371 27.61995164 180.45172064 27.61967378 C168.72249737 27.61494524 156.99333469 27.59638851 145.26413614 27.57267186 C133.47492017 27.54912856 121.68576966 27.54045069 109.89653105 27.54599449 C103.50777951 27.54856229 97.11920598 27.54456254 90.73048592 27.5231781 C84.88386967 27.50375068 79.03755159 27.50270547 73.19092178 27.51640442 C71.0736946 27.51809818 68.95644901 27.51299199 66.83925819 27.50046727 C63.96405205 27.48444474 61.08992612 27.49304781 58.21473694 27.50780869 C57.390263 27.49730063 56.56578906 27.48679258 55.71633106 27.4759661 C48.30591056 27.56209809 42.03010888 30.02729085 37.1875 35.8125 Z " fill="#2B1E10" transform="translate(0,0)"/>
<path d="M0 0 C206.58 0 413.16 0 626 0 C626 86.46 626 172.92 626 262 C419.42 262 212.84 262 0 262 C0 175.54 0 89.08 0 0 Z M20.7890625 28.984375 C15.0046029 38.73459948 14.41521835 48.21030641 14.46655273 59.28076172 C14.4594816 60.89674665 14.4507316 62.51272496 14.44044495 64.12869263 C14.41807333 68.48838913 14.42086208 72.84772049 14.42976642 77.2074523 C14.43490206 80.86023607 14.42756284 84.51295278 14.42029434 88.16572964 C14.40333368 96.79007163 14.40682185 105.41423652 14.42358398 114.03857422 C14.44049753 122.90635642 14.42467266 131.77364606 14.3923611 140.64137447 C14.36558386 148.28253734 14.3584112 155.92354766 14.36687618 163.5647527 C14.37178224 168.1163477 14.36971674 172.66764666 14.34908867 177.21920395 C14.33060335 181.50244507 14.33684519 185.78498333 14.36128807 190.06818771 C14.36625574 191.63013873 14.36291275 193.19214452 14.35013962 194.75405121 C14.24092348 209.26967756 17.9121553 223.47576081 28.171875 234.2890625 C38.0447671 243.39995286 48.06671199 245.32292961 61.17929077 245.24723816 C62.15377627 245.24965257 63.12826177 245.25206699 64.13227713 245.25455457 C67.37129501 245.26015366 70.61011232 245.25155689 73.84912109 245.24291992 C76.18264825 245.24399382 78.51617514 245.2459341 80.84970093 245.24867249 C87.17259051 245.25350945 93.49540922 245.24587712 99.81829023 245.23571944 C105.78151795 245.2278029 111.74474262 245.22855791 117.70797415 245.22899476 C129.53693646 245.22949472 141.36587169 245.22035579 153.19482422 245.20581055 C164.63037612 245.1917566 176.06590418 245.18463851 187.50146484 245.18530273 C188.5558803 245.18536267 188.5558803 245.18536267 189.63159709 245.18542381 C190.33341037 245.18546417 191.03522365 245.18550452 191.758304 245.1855461 C204.16159302 245.18620448 216.56487262 245.18105375 228.96815872 245.17275429 C234.22678325 245.16924503 239.48540436 245.16739443 244.74403 245.16686058 C250.9575088 245.16584664 257.17096308 245.15966541 263.38443375 245.14969444 C265.64974568 245.146804 267.91506044 245.14553694 270.18037415 245.14612198 C282.57236019 245.14810905 294.90550907 244.92728663 307.27846718 244.21364307 C312.18502417 243.93197099 317.08610788 244 322 244 C322 243.34 322 242.68 322 242 C322.85951263 242.48797562 322.85951263 242.48797562 323.73638916 242.98580933 C326.13602352 244.06094413 327.6116804 244.24313778 330.21777344 244.22705078 C331.03832214 244.22689972 331.85887085 244.22674866 332.70428467 244.22659302 C333.58046448 244.21627045 334.45664429 244.20594788 335.359375 244.1953125 C336.26375305 244.1924826 337.1681311 244.18965271 338.09991455 244.18673706 C340.98341195 244.17555782 343.86659675 244.15045733 346.75 244.125 C348.70702676 244.11496728 350.66405839 244.10584194 352.62109375 244.09765625 C357.41418262 244.07562585 362.20703834 244.04111144 367 244 C367 243.67 367 243.34 367 243 C368.65 242.67 370.3 242.34 372 242 C372 242.66 372 243.32 372 244 C372.66789551 243.99476318 373.33579102 243.98952637 374.02392578 243.98413086 C398.7084492 243.82116267 423.3023294 244.46309412 448 245 C490.24 245 532.48 245 576 245 C333.945 245.495 333.945 245.495 87 246 C87 246.33 87 246.66 87 247 C113.88801772 247.87399058 140.74879573 248.14742851 167.64983177 248.13072467 C173.17349232 248.12841759 178.69715 248.13197562 184.22080994 248.13470459 C194.97465282 248.13910266 205.72848864 248.13821364 216.48233177 248.13529195 C225.21756517 248.13301816 233.95279662 248.13273386 242.68803024 248.13381577 C243.93896538 248.133969 245.18990051 248.13412223 246.47874277 248.13428011 C249.02086255 248.13459987 251.56298233 248.13492408 254.10510211 248.1352527 C277.13917091 248.1380084 300.17323663 248.13517239 323.20730471 248.1299101 C344.21925986 248.1251464 365.23120896 248.12560777 386.24316406 248.13037109 C409.92784012 248.13572256 433.61251325 248.13783403 457.29719007 248.13475883 C459.81869531 248.1344403 462.34020054 248.13412593 464.86170578 248.13381577 C466.72226014 248.13358435 466.72226014 248.13358435 468.62040145 248.13334826 C477.36187068 248.13248472 486.10333777 248.13394211 494.84480667 248.13629532 C505.47067766 248.13909344 516.09654127 248.13835399 526.72241141 248.13301457 C532.14278843 248.13038064 537.5631531 248.1293676 542.98353004 248.13266373 C547.93889792 248.13563179 552.89424194 248.13402538 557.84960763 248.12868617 C559.64664659 248.12756442 561.44368755 248.12814786 563.24072523 248.13056196 C565.67360782 248.13358108 568.10640748 248.13050571 570.53928566 248.12584114 C571.24468389 248.12818231 571.95008211 248.13052347 572.67685604 248.13293558 C575.93137587 248.12037334 578.8870511 247.99888214 582 247 C582 246.34 582 245.68 582 245 C582.8353125 244.90525391 582.8353125 244.90525391 583.6875 244.80859375 C591.4595242 243.56139392 596.02705759 239.93477672 600.7265625 233.71484375 C602.21974948 231.51184129 603.62588962 229.27869715 605 227 C605.5775 226.113125 606.155 225.22625 606.75 224.3125 C609.49909408 219.22667596 610.25169293 214.69472279 610.26742554 208.95005798 C610.27195665 208.26398344 610.27648776 207.5779089 610.28115618 206.87104422 C610.29376168 204.58445149 610.29218231 202.29809812 610.29052734 200.01147461 C610.29651524 198.36667578 610.3033214 196.72187975 610.31088257 195.0770874 C610.32852901 190.61595323 610.33323754 186.15489582 610.33451414 181.69373012 C610.33593774 178.9018714 610.34021143 176.11003207 610.34550858 173.31817818 C610.36400853 163.56440116 610.37217975 153.81067875 610.37060547 144.05688477 C610.36940599 134.98877217 610.39047037 125.92089832 610.4220928 116.85284609 C610.44832428 109.05045204 610.4589698 101.2481356 610.45769465 93.44569784 C610.45718678 88.79344988 610.46277191 84.14141388 610.48405075 79.48921013 C610.50354777 75.10683585 610.50348005 70.72487311 610.48901749 66.34248352 C610.486942 64.74343826 610.49155417 63.14436647 610.5037384 61.54536629 C610.6070847 47.0300298 608.27061575 33.09243169 598.15234375 21.96875 C589.1234438 13.49630313 577.94167976 10.68199612 565.83440018 10.74273109 C564.94068002 10.73922502 564.04695987 10.73571895 563.12615728 10.73210663 C560.13394883 10.72280902 557.1419357 10.72771175 554.14971924 10.73257446 C551.98172051 10.72883739 549.81372312 10.72423564 547.64572787 10.71884382 C541.68972677 10.7066056 535.7337818 10.70687526 529.777771 10.70923257 C523.35361871 10.70964052 516.92948447 10.69860363 510.50534058 10.68911743 C497.91988715 10.67250208 485.33445304 10.66698173 472.74898961 10.66589268 C462.5194933 10.66497328 452.29000306 10.66085496 442.06050873 10.65449142 C439.11500637 10.65269631 436.16950401 10.65091668 433.22400165 10.64914167 C432.12558246 10.64847852 432.12558246 10.64847852 431.00497299 10.64780198 C410.40966382 10.63549506 389.81435675 10.62760071 369.21904373 10.62848854 C368.05451311 10.62853528 368.05451311 10.62853528 366.86645662 10.62858296 C362.93165386 10.62874917 358.9968511 10.62894725 355.06204835 10.62915237 C354.28059517 10.62919226 353.49914199 10.62923215 352.69400841 10.62927325 C351.11371988 10.62935413 349.53343135 10.62943772 347.95314282 10.62952404 C323.36782677 10.63074947 298.78256589 10.61573706 274.19726562 10.58837891 C246.56984895 10.55764813 218.94246852 10.540447 191.31503367 10.54230535 C188.36827389 10.54245461 185.42151412 10.54255202 182.47475433 10.54261398 C181.74919826 10.54263729 181.02364219 10.5426606 180.27609956 10.54268462 C168.60762297 10.54274612 156.93919433 10.52998261 145.27073198 10.51274945 C133.54066481 10.4957838 121.81067358 10.49416917 110.08060077 10.5069681 C103.72775931 10.51350313 97.3750914 10.51359527 91.02226639 10.4962616 C85.20412166 10.48055009 79.38628837 10.48337526 73.56815132 10.50082986 C71.46590145 10.50390394 69.36362845 10.50025209 67.26140586 10.48910971 C47.9184158 10.3933948 33.62763602 13.35955787 20.7890625 28.984375 Z " fill="#1D1E1D" transform="translate(0,0)"/>
<path d="M0 0 C3.96 0 7.92 0 12 0 C11.67 1.32 11.34 2.64 11 4 C11.66 3.67 12.32 3.34 13 3 C14.6674606 2.91573906 16.33825187 2.89274857 18.0078125 2.90234375 C18.99394531 2.90556641 19.98007813 2.90878906 20.99609375 2.91210938 C22.02863281 2.92048828 23.06117188 2.92886719 24.125 2.9375 C25.68541016 2.94426758 25.68541016 2.94426758 27.27734375 2.95117188 C29.85161962 2.96298048 32.42578146 2.97944925 35 3 C35 4.32 35 5.64 35 7 C35.99 7.99 35.99 7.99 37 9 C37.33 8.34 37.66 7.68 38 7 C38.66 7 39.32 7 40 7 C40 7.99 40 8.98 40 10 C42.31 10 44.62 10 47 10 C47 10.99 47 11.98 47 13 C48.1446875 12.6596875 48.1446875 12.6596875 49.3125 12.3125 C50.199375 12.209375 51.08625 12.10625 52 12 C53.5 13.25 53.5 13.25 55 15 C58.91233983 17.82557877 62.22260904 18.53162834 67 19 C67.99 21.97 67.99 21.97 69 25 C68.34 25.66 67.68 26.32 67 27 C66.67 26.34 66.34 25.68 66 25 C66.02094727 25.98057373 66.04189453 26.96114746 66.06347656 27.97143555 C66.92486988 72.15026024 66.92486988 72.15026024 61 84 C59.68 84 58.36 84 57 84 C57 84.66 57 85.32 57 86 C56.34 86 55.68 86 55 86 C54.87625 86.53625 54.7525 87.0725 54.625 87.625 C47.81784574 113.49218619 28.95600732 135.36452769 6.25 148.875 C3.84138075 150.26456455 1.4204276 151.63097987 -1 153 C-1.89203125 153.56203125 -2.7840625 154.1240625 -3.703125 154.703125 C-4.46109375 155.17234375 -5.2190625 155.6415625 -6 156.125 C-6.61875 156.51945313 -7.2375 156.91390625 -7.875 157.3203125 C-12.67794463 158.85654847 -16.96280518 157.17886246 -21.26953125 154.99609375 C-22.79190827 154.15769044 -24.30604674 153.30418937 -25.8125 152.4375 C-26.60785156 151.98640869 -27.40320313 151.53531738 -28.22265625 151.07055664 C-34.29628585 147.55675847 -39.76447171 143.68345149 -45 139 C-45.82628906 138.29230469 -46.65257812 137.58460938 -47.50390625 136.85546875 C-52.70832809 132.31848422 -57.29140543 127.48537605 -61.828125 122.2890625 C-64.42967162 119.54714466 -67.25583367 117.47448349 -70.3359375 115.30859375 C-72.59588048 113.53140854 -73.8395614 111.61098685 -75 109 C-75 108.34 -75 107.68 -75 107 C-75.99 106.67 -76.98 106.34 -78 106 C-79.71804071 103.1910361 -80.80081196 100.06097448 -82 97 C-82.35521729 96.10385986 -82.71043457 95.20771973 -83.07641602 94.28442383 C-86.24022064 85.97310688 -87.87697674 77.78928122 -89 69 C-89.17273438 67.96327148 -89.34546875 66.92654297 -89.5234375 65.85839844 C-90.07485219 61.39397336 -90.12529467 57.05825647 -90.09765625 52.56640625 C-90.0962413 51.68846909 -90.09482635 50.81053192 -90.09336853 49.9059906 C-90.08780821 47.12479118 -90.07526321 44.34367474 -90.0625 41.5625 C-90.05747987 39.66731888 -90.05291786 37.77213648 -90.04882812 35.87695312 C-90.0378518 31.25127052 -90.02061482 26.62564929 -90 22 C-69.08972747 12.64934277 -69.08972747 12.64934277 -57.921875 9.765625 C-55.37027439 9.09702377 -52.96862763 8.29397817 -50.5 7.375 C-44.54089844 5.30571046 -38.23439875 4.75380355 -32 4 C-32 3.34 -32 2.68 -32 2 C-25.35958878 0.77600548 -18.79778303 0.88772247 -12.0625 0.9375 C-10.90169922 0.94201172 -9.74089844 0.94652344 -8.54492188 0.95117188 C-5.69656066 0.96289353 -2.84830778 0.9793024 0 1 C0 0.67 0 0.34 0 0 Z " fill="#5B5C56" transform="translate(155,46)"/>
<path d="M0 0 C5.89243449 3.63575745 9.84256731 8.20281931 11.9375 14.8125 C12.8344215 21.02753184 12.45179931 26.5384707 9.2734375 32.02734375 C5.73645889 36.75365727 1.5634756 39.99208915 -4.0625 41.8125 C-11.44086035 42.72045885 -17.84543969 42.47093414 -24.1875 38.37890625 C-28.84359928 34.48912331 -31.75064848 29.88364534 -32.37109375 23.7734375 C-32.62955823 16.58342568 -32.493789 11.38696969 -27.875 5.65625 C-20.34669502 -2.00185334 -10.31916951 -3.91494808 0 0 Z " fill="#C4AB7E" transform="translate(512.0625,96.1875)"/>
<path d="M0 0 C11.38910487 1.10601188 11.38910487 1.10601188 22.69921875 -0.00390625 C26.14271176 -0.63568761 28.79501387 0.47333796 32.0625 1.5625 C32.3925 0.9025 32.7225 0.2425 33.0625 -0.4375 C33.0625 0.2225 33.0625 0.8825 33.0625 1.5625 C34.17270508 1.4917627 35.28291016 1.42102539 36.42675781 1.34814453 C50.29784756 0.52762783 64.14052815 0.40872238 78.03320312 0.43212891 C81.79301013 0.4374723 85.55269667 0.43215879 89.3125 0.42578125 C104.58651369 0.4220299 119.80855637 0.77466602 135.0625 1.5625 C135.0625 1.8925 135.0625 2.2225 135.0625 2.5625 C69.7225 2.5625 4.3825 2.5625 -62.9375 2.5625 C-62.9375 2.2325 -62.9375 1.9025 -62.9375 1.5625 C-57.66681424 1.39090265 -52.39597983 1.22476358 -47.125 1.0625 C-46.3492865 1.03849121 -45.573573 1.01448242 -44.77435303 0.98974609 C-34.95446982 0.68969198 -25.14656762 0.4369387 -15.32104492 0.59960938 C-11.54339098 0.64908423 -11.54339098 0.64908423 -7.83203125 0.03515625 C-5.13365208 -0.63804763 -2.75948779 -0.27628988 0 0 Z " fill="#3F3725" transform="translate(192.9375,8.4375)"/>
<path d="M0 0 C1.32 0 2.64 0 4 0 C2.55602666 20.69695118 -13.72730181 42.66021013 -29 56 C-56.24086379 79 -56.24086379 79 -69 79 C-69.495 76.525 -69.495 76.525 -70 74 C-68.98421875 73.5153125 -67.9684375 73.030625 -66.921875 72.53125 C-34.67808981 56.93475046 -15.08743146 35.03623476 -2 2 C-1.34 2 -0.68 2 0 2 C0 1.34 0 0.68 0 0 Z " fill="#7E613F" transform="translate(212,130)"/>
<path d="M0 0 C5.61 0 11.22 0 17 0 C17 0.66 17 1.32 17 2 C16.01 2.66 15.02 3.32 14 4 C13.49378487 6.02276681 13.49378487 6.02276681 13.48828125 8.3515625 C13.45283203 9.20234375 13.41738281 10.053125 13.38085938 10.9296875 C13.34702148 12.26386719 13.34702148 12.26386719 13.3125 13.625 C13.27833984 14.5221875 13.24417969 15.419375 13.20898438 16.34375 C13.12637598 18.56237538 13.05727281 20.7805994 13 23 C13.73992187 22.25878906 14.47984375 21.51757812 15.2421875 20.75390625 C16.86704881 19.13134644 18.49566462 17.51250568 20.1328125 15.90234375 C20.79023438 15.25394531 21.44765625 14.60554688 22.125 13.9375 C22.78757812 13.28652344 23.45015625 12.63554688 24.1328125 11.96484375 C27.10464867 8.83757682 29.2311035 6.30582043 30 2 C29.01 2 28.02 2 27 2 C27 1.34 27 0.68 27 0 C32.28 0 37.56 0 43 0 C43 0.66 43 1.32 43 2 C42.17242187 2.33644531 41.34484375 2.67289062 40.4921875 3.01953125 C35.90679482 5.31222759 32.64277472 9.03678612 29.125 12.6875 C28.43664062 13.38939453 27.74828125 14.09128906 27.0390625 14.81445312 C25.35232739 16.53632855 23.67303303 18.26482574 22 20 C23.24700917 22.63826194 24.58116243 24.91973757 26.390625 27.20703125 C26.84985352 27.79073486 27.30908203 28.37443848 27.78222656 28.97583008 C30.73651028 32.67293175 30.73651028 32.67293175 33.69921875 36.36328125 C34.76264787 37.70134972 35.79262539 39.06594449 36.8125 40.4375 C39.33087308 43.72233446 40.51679807 44.91209837 44.671875 45.66796875 C45.77015625 45.77753906 46.8684375 45.88710937 48 46 C53.61659679 33.10234551 59.00586673 20.15175288 64 7 C65.32 7 66.64 7 68 7 C68.33733154 7.79583496 68.67466309 8.59166992 69.0222168 9.41162109 C70.29637593 12.41336125 71.57340836 15.41384675 72.85229492 18.41357422 C73.40127101 19.7028095 73.94915554 20.99251023 74.49584961 22.28271484 C80.08821889 36.69515715 80.08821889 36.69515715 89 49 C83.39 49 77.78 49 72 49 C72 48.34 72 47.68 72 47 C72.66 47 73.32 47 74 47 C73.01 43.7 72.02 40.4 71 37 C66.38 37 61.76 37 57 37 C56.01 40.3 55.02 43.6 54 47 C54.99 47 55.98 47 57 47 C57 47.66 57 48.32 57 49 C35.83148922 51.21800171 35.83148922 51.21800171 29.84912109 47.75488281 C26.45643442 44.60307979 24.19990465 40.79848662 22.00830078 36.75292969 C20.57556294 34.26211668 18.75497058 32.230927 16.8125 30.125 C15.884375 29.09375 14.95625 28.0625 14 27 C13.67 33.27 13.34 39.54 13 46 C14.32 46.33 15.64 46.66 17 47 C17 47.66 17 48.32 17 49 C11.39 49 5.78 49 0 49 C0 48.34 0 47.68 0 47 C1.98 46.505 1.98 46.505 4 46 C3.93129299 40.05475575 3.84341068 34.11022632 3.73754883 28.16552734 C3.70424321 26.14217029 3.676229 24.11871907 3.65356445 22.09521484 C3.62012165 19.19067148 3.56781231 16.28699558 3.51171875 13.3828125 C3.50213387 12.02024826 3.50213387 12.02024826 3.49235535 10.63015747 C3.47256119 9.78943695 3.45276703 8.94871643 3.43237305 8.08251953 C3.42126999 7.34083527 3.41016693 6.599151 3.39872742 5.83499146 C3.13280747 3.58638164 3.13280747 3.58638164 0 2 C0 1.34 0 0.68 0 0 Z " fill="#D1B482" transform="translate(343,88)"/>
<path d="M0 0 C3.83318619 -0.08789644 7.66610928 -0.14069087 11.5 -0.1875 C13.11648437 -0.22520508 13.11648437 -0.22520508 14.765625 -0.26367188 C22.31305976 -0.33270329 28.64127969 -0.02284828 34.5 5.25 C36.43935576 8.80548555 36.50011751 10.99905992 36 15 C34.63035715 18.0816964 33.70715882 19.57570471 30.8125 21.3125 C29.9153125 21.6528125 29.9153125 21.6528125 29 22 C29.928125 22.598125 30.85625 23.19625 31.8125 23.8125 C37.59322034 27.77966102 37.59322034 27.77966102 39 32 C39.4638697 36.8242449 39.0999762 40.37328807 36.3996582 44.38452148 C33.17297489 48.10874327 28.5053237 48.88887957 23.81835938 49.23486328 C20.20742302 49.29471028 16.61060935 49.26184729 13 49.1875 C11.74832031 49.17396484 10.49664062 49.16042969 9.20703125 49.14648438 C6.13756884 49.11133786 3.06901491 49.06213226 0 49 C0 48.34 0 47.68 0 47 C1.32 46.34 2.64 45.68 4 45 C4 31.47 4 17.94 4 4 C2.68 3.34 1.36 2.68 0 2 C0 1.34 0 0.68 0 0 Z " fill="#D1B77C" transform="translate(241,88)"/>
<path d="M0 0 C3.83318619 -0.08789644 7.66610928 -0.14069087 11.5 -0.1875 C13.11648437 -0.22520508 13.11648437 -0.22520508 14.765625 -0.26367188 C22.31305976 -0.33270329 28.64127969 -0.02284828 34.5 5.25 C36.43935576 8.80548555 36.50011751 10.99905992 36 15 C34.8125 17.875 34.8125 17.875 33 20 C30.17583545 20.91785348 27.97077176 21 25 21 C25.165 20.505 25.33 20.01 25.5 19.5 C26.38679295 15.06603527 26.70431356 10.83121525 25.0625 6.5625 C21.68219085 4.00165973 18.17805492 4.24220608 14 4 C14 9.94 14 15.88 14 22 C16.31 22 18.62 22 21 22 C21 22.66 21 23.32 21 24 C18.36 24 15.72 24 13 24 C13 27.63 13 31.26 13 35 C12.505 33.515 12.505 33.515 12 32 C10.02 31.67 8.04 31.34 6 31 C6 34.96 6 38.92 6 43 C5.67 43 5.34 43 5 43 C4.67 30.13 4.34 17.26 4 4 C2.68 3.34 1.36 2.68 0 2 C0 1.34 0 0.68 0 0 Z " fill="#ECC985" transform="translate(241,88)"/>
<path d="M0 0 C11.89915966 0 11.89915966 0 16.44140625 4.39453125 C20.97266587 9.49381201 21.30215694 13.82084406 21.21484375 20.3984375 C20.76858411 25.80223602 19.38461452 29.68292765 15.4375 33.4375 C9.41121849 37.30050097 9.83788938 36 0 36 C0 24.12 0 12.24 0 0 Z " fill="#44423D" transform="translate(445,98)"/>
<path d="M0 0 C10 0 10 0 13.125 1.8125 C15.8659029 6.47203493 15.90298353 10.72039359 15 16 C13.1031157 18.65563802 11.85514945 19.57242527 9 21 C6.03 21 3.06 21 0 21 C0 14.07 0 7.14 0 0 Z " fill="#43433E" transform="translate(255,92)"/>
<path d="M0 0 C0 4.62 0 9.24 0 14 C-2.5678125 14.0928125 -2.5678125 14.0928125 -5.1875 14.1875 C-9.23455087 14.55023183 -10.63445539 14.70597499 -13.875 17.3125 C-14.57625 18.199375 -15.2775 19.08625 -16 20 C-16.9075 20.721875 -17.815 21.44375 -18.75 22.1875 C-21.07487388 23.80309077 -21.07487388 23.80309077 -22 26 C-24.62581138 27.57548683 -25.87099787 28 -29 28 C-29.99 30.475 -29.99 30.475 -31 33 C-30.34 33.33 -29.68 33.66 -29 34 C-28.87625 34.78375 -28.7525 35.5675 -28.625 36.375 C-27.20854107 44.59046177 -24.1923717 51.50953537 -19 58 C-19.33 58.66 -19.66 59.32 -20 60 C-25.57866059 53.19572458 -29.80923826 45.70242349 -34 38 C-34.59425781 36.95070312 -35.18851563 35.90140625 -35.80078125 34.8203125 C-37.14100222 31.66839218 -37.22249295 31.07976929 -36 28 C-34.17749023 25.80517578 -34.17749023 25.80517578 -31.80859375 23.4453125 C-30.94556641 22.58292969 -30.08253906 21.72054687 -29.19335938 20.83203125 C-28.28392578 19.93871094 -27.37449219 19.04539062 -26.4375 18.125 C-25.55513672 17.23941406 -24.67277344 16.35382813 -23.76367188 15.44140625 C-8.19569672 0 -8.19569672 0 0 0 Z " fill="#595A55" transform="translate(207,88)"/>
<path d="M0 0 C0 0.99 0 1.98 0 3 C-10.45442536 1.36649604 -10.45442536 1.36649604 -14.8125 -0.4375 C-30.00401807 -6.57014151 -46.61555808 -6.14646382 -62.6875 -6.0625 C-64.37174346 -6.05747338 -66.05598837 -6.05291253 -67.74023438 -6.04882812 C-71.82685953 -6.03791827 -75.91341328 -6.02071821 -80 -6 C-80 -6.66 -80 -7.32 -80 -8 C-80.84175781 -7.85433594 -81.68351562 -7.70867187 -82.55078125 -7.55859375 C-87.30392642 -6.78883185 -92.07888256 -6.20299571 -96.85546875 -5.59765625 C-100.14648257 -5.18371174 -100.14648257 -5.18371174 -103 -3 C-105.04296875 -2.8046875 -105.04296875 -2.8046875 -107.1875 -2.875 C-109.0746875 -2.936875 -109.0746875 -2.936875 -111 -3 C-110.67 -3.99 -110.34 -4.98 -110 -6 C-75.5344962 -21.9071556 -33.49135323 -13.8185868 0 0 Z " fill="#2C251E" transform="translate(207,74)"/>
</svg>
